<svg xmlns="http://www.w3.org/2000/svg" version="1.1" xmlns:xlink="http://www.w3.org/1999/xlink" xmlns:svgjs="http://svgjs.dev/svgjs" width="1000" height="1000" viewBox="0 0 1000 1000"><rect width="1000" height="1000" fill="#fefee2"></rect><g transform="matrix(0.7,0,0,0.7,150.11926576061654,123.00550607287448)"><svg viewBox="0 0 229 247" data-background-color="#fefee2" preserveAspectRatio="xMidYMid meet" height="1078" width="1000" xmlns="http://www.w3.org/2000/svg" xmlns:xlink="http://www.w3.org/1999/xlink"><g id="tight-bounds" transform="matrix(1,0,0,1,-0.03901693278459106,-0.09999999999999432)"><svg viewBox="0 0 229.07802908522328 247.2" height="247.2" width="229.07802908522328"><g><svg viewBox="0 0 395.52 426.80891044171653" height="247.2" width="229.07802908522328"><g transform="matrix(1,0,0,1,0,275.3108120221368)"><svg viewBox="0 0 395.52 151.49809841957975" height="151.49809841957975" width="395.52"><g id="textblocktransform"><svg viewBox="0 0 395.52 151.49809841957975" height="151.49809841957975" width="395.52" id="textblock"><g><svg viewBox="0 0 395.52 103.16968698517297" height="103.16968698517297" width="395.52"><g transform="matrix(1,0,0,1,0,0)"><svg width="395.52" viewBox="0.08000000566244125 -32.15999984741211 145.6999969482422 38" height="103.16968698517297" data-palette-color="#7fc37e"><g class="wordmark-text-0" data-fill-palette-color="primary" id="text-0"><path d="M15.4-27.38Q17.8-28.4 20.24-29.02 22.68-29.64 23.68-29.64L23.68-29.64Q25-29.64 25.04-29.16L25.04-29.16 25.08-29Q24.24-29 23.64-28.34 23.04-27.68 22.48-25.72L22.48-25.72Q21.84-23.28 21.36-20.54 20.88-17.8 20.82-17.52 20.76-17.24 20.7-16.82 20.64-16.4 20.56-16.04L20.56-16.04Q27.6-16.64 29.92-16.76L29.92-16.76Q31.2-23.4 33.12-27.78 35.04-32.16 36.76-32.16L36.76-32.16Q37.4-32.16 37.4-31.52L37.4-31.52Q34.76-25.72 33.34-19.82 31.92-13.92 31.14-8.34 30.36-2.76 30.36 1.12L30.36 1.12Q30.36 1.68 29.8 1.68L29.8 1.68Q28.4 1.68 28.4-1.52L28.4-1.52Q28.4-8.28 29.68-15.76L29.68-15.76Q25.8-15.32 23.62-15.02 21.44-14.72 20.32-14.6L20.32-14.6Q18.6-5.16 16.48-1.52L16.48-1.52Q15.48 0.2 14.2 1.68L14.2 1.68Q11.6 4.64 7.36 4.64L7.36 4.64Q4.24 4.64 2.34 2.88 0.44 1.12 0.16-1.4L0.16-1.4Q0.08-2.24 0.08-3.5 0.08-4.76 0.54-6.86 1-8.96 2.74-10.72 4.48-12.48 6.72-12.48L6.72-12.48Q7.32-12.48 7.68-12.12 8.04-11.76 8.16-11.04L8.16-11.04Q4.52-11.04 2.48-7.48L2.48-7.48Q1.12-5.16 1.12-2.84L1.12-2.84Q1.12-1.6 1.52-0.32L1.52-0.32Q2.64 3.24 6.76 3.24L6.76 3.24Q10.76 3.24 13.12-0.96L13.12-0.96Q14.6-3.64 15.4-6.32L15.4-6.32Q16.52-10.16 17.36-14.24L17.36-14.24Q16.08-14.08 15.08-14.08 14.08-14.08 13.92-15.08L13.92-15.08Q13.76-15.84 14.24-16L14.24-16Q14.28-16.04 14.36-16.04L14.36-16.04Q14.52-15.76 15.3-15.76 16.08-15.76 17.72-15.88L17.72-15.88Q18.48-19.52 18.92-21.38 19.36-23.24 20.24-25.46 21.12-27.68 22.12-28.64L22.12-28.64Q18.44-27.96 15.24-26.08L15.24-26.08Q13.6-25.12 12.56-23.72 11.52-22.32 11.52-20.8L11.52-20.8Q11.52-19.76 12.32-19.76L12.32-19.76Q12.16-19.2 11.44-19.2 10.72-19.2 10.18-19.76 9.64-20.32 9.64-21.32L9.64-21.32Q9.64-23.08 11.32-24.72 13-26.36 15.4-27.38ZM39.44 0L39.44 0Q36.16 0 36.16-5.16L36.16-5.16Q36.16-8.24 37.68-11.92L37.68-11.92Q39.8-17.08 43.24-18.96L43.24-18.96Q44.72-19.76 46-19.76 47.28-19.76 48.02-19.2 48.76-18.64 48.96-18.08L48.96-18.08 49.2-17.56Q49.08-16.88 48.52-16.88L48.52-16.88Q47.88-16.88 47.78-17.18 47.68-17.48 47.56-17.7 47.44-17.92 47-18.3 46.56-18.68 46-18.68L46-18.68Q43.4-18.68 41.28-14L41.28-14Q38.88-8.6 38.88-3.84L38.88-3.84Q38.88-1.44 39.84-1.44L39.84-1.44Q40.6-1.44 41.98-3.14 43.36-4.84 44.88-7.4L44.88-7.4Q47.52-11.8 49.16-15.04L49.16-15.04Q50.52-17.92 51.96-17.92L51.96-17.92Q52.72-17.92 52.72-17L52.72-17Q52.36-16.24 51.8-14.84 51.24-13.44 50.32-9.28 49.4-5.12 49.4-1 49.4 3.12 50.64 3.12L50.64 3.12Q51.12 3.12 51.52 2.7 51.92 2.28 52.24 1.44L52.24 1.44Q52.36 1 52.8 1L52.8 1Q52.96 1 53.04 1.12 53.12 1.24 53.04 1.52 52.96 1.8 52.76 2.3 52.56 2.8 51.9 3.64 51.24 4.48 50.52 4.48L50.52 4.48Q48.84 4.48 47.94 2.28 47.04 0.08 47.04-2.92 47.04-5.92 47.48-8.68L47.48-8.68 47.08-8.68Q42 0 39.44 0ZM56.24-3.4L56.24-3.4Q56.24-9.32 57.46-13.96 58.68-18.6 60.56-18.6L60.56-18.6Q61.48-18.6 61.48-17.6L61.48-17.6Q61.08-16.56 60.48-14.84 59.88-13.12 58.9-8.62 57.92-4.12 57.92-0.6L57.92-0.6Q57.92-0.04 57.32-0.04L57.32-0.04Q56.24-0.04 56.24-3.4ZM62.08-23.04L61.6-22.36Q60.76-22.36 60.76-23.96L60.76-23.96Q60.76-24.92 61.28-25.98 61.8-27.04 62.76-27.04L62.76-27.04Q63.56-27.04 63.56-26.12L63.56-26.12Q63.56-25.2 62.08-23.04L62.08-23.04ZM76.63-11.48L76.63-11.48Q75.11-11.48 75.11-14.8L75.11-14.8Q75.11-16.68 75.83-18.32L75.83-18.32Q73.11-15.96 69.75-9.54 66.39-3.12 66.39-1.16L66.39-1.16Q66.39-0.68 65.75-0.68L65.75-0.68Q64.59-0.68 64.59-3.84L64.59-3.84Q64.59-9.8 65.79-14.64 66.99-19.48 68.71-19.48L68.71-19.48Q69.47-19.48 69.47-18.6L69.47-18.6Q67.63-12.76 66.83-6.64L66.83-6.64 67.11-6.64Q70.35-14.12 74.27-18.32L74.27-18.32Q76.51-20.72 78.35-20.72L78.35-20.72Q78.75-20.72 79.01-20.48 79.27-20.24 79.27-19.88L79.27-19.88Q78.99-19.6 78.59-19.04 78.19-18.48 77.51-16.38 76.83-14.28 76.83-11.8L76.83-11.8Q76.83-11.48 76.63-11.48Z" fill="#7fc37e" data-fill-palette-color="primary"></path><path d="M113.11-20.56L113.11-20.56Q113.11-20.4 112.77-20.36 112.43-20.32 112.09-20.48 111.75-20.64 111.75-20.92L111.75-20.92Q111.75-25 112.67-27.5 113.59-30 115.07-30L115.07-30Q115.47-30 115.75-29.72 116.03-29.44 116.03-28.96L116.03-28.96Q114.19-27.12 113.43-23.6L113.43-23.6Q113.11-22.16 113.11-20.56ZM110.71-29.04L110.71-29.04Q105.19-29.04 100.83-22.6L100.83-22.6Q97.07-17.04 95.91-9.64L95.91-9.64Q95.51-7.2 95.51-5.16L95.51-5.16Q95.51-1.24 96.95 1.14 98.39 3.52 100.99 3.52L100.99 3.52Q104.51 3.52 106.99-0.52L106.99-0.52Q108.67-3.24 108.67-5.32L108.67-5.32Q108.67-6.24 108.19-6.24L108.19-6.24Q108.43-7.16 109.39-7.16L109.39-7.16Q110.51-7.16 110.51-5.56L110.51-5.56Q110.51-2.56 107.87 0.84L107.87 0.84Q104.71 4.88 100.47 4.88L100.47 4.88Q95.15 4.88 93.27-0.44L93.27-0.44Q92.35-2.92 92.35-6.06 92.35-9.2 93.39-13.08L93.39-13.08Q95.39-20.76 100.13-25.84 104.87-30.92 110.63-30.96L110.63-30.96Q111.43-30.96 111.79-30.44 112.15-29.92 112.11-29.44L112.11-29.44 112.11-28.92Q111.79-29.04 110.71-29.04ZM128.15 3L128.15 3Q128.63 3 129.04 2.58 129.47 2.16 129.82 1.28L129.82 1.28Q129.86 0.92 130.3 0.92 130.75 0.92 130.65 1.28 130.54 1.64 130.32 2.16 130.11 2.68 129.4 3.54 128.71 4.4 127.99 4.4L127.99 4.4Q126.39 4.4 125.5 2.4L125.5 2.4Q124.58 0.4 124.58-2.54 124.58-5.48 125.03-8.6L125.03-8.6 124.66-8.6Q119.82-0.16 117.22-0.16L117.22-0.16Q114.15-0.16 114.15-4.86 114.15-9.56 116.15-14.24L116.15-14.24Q118.35-19.4 120.03-19.4L120.03-19.4Q120.75-19.4 120.75-18.52L120.75-18.52Q119.07-14.08 117.86-9.88 116.67-5.68 116.67-3.62 116.67-1.56 117.62-1.56L117.62-1.56Q118.3-1.56 119.65-3.2 120.99-4.84 122.39-7.2L122.39-7.2Q125.39-12.28 126.97-15.84 128.54-19.4 130.22-19.4L130.22-19.4Q131.02-19.4 131.02-18.52L131.02-18.52Q128.47-13.44 127.39-6.4L127.39-6.4Q126.94-3.6 126.94-0.92L126.94-0.92Q126.94 3 128.15 3ZM135.5-17.32L135.5-17.32Q133.94-17.32 133.94-18.6L133.94-18.6Q133.94-19.08 134.34-19.2L134.34-19.2Q134.38-19.24 134.46-19.24L134.46-19.24Q134.7-18.96 135.36-18.96 136.02-18.96 137.46-19.04L137.46-19.04Q139.34-24.12 141.06-24.12L141.06-24.12Q141.74-24.12 141.74-23.36L141.74-23.36Q141.1-21.76 140.3-19.24L140.3-19.24Q144.26-19.68 145.46-19.68L145.46-19.68Q145.78-19.68 145.78-19.36L145.78-19.36Q145.78-18.72 144.94-18.72L144.94-18.72Q144.5-18.72 139.86-17.88L139.86-17.88Q136.7-7.88 136.7-1.68 136.7 4.52 139.18 4.52L139.18 4.52Q140.18 4.52 141.06 3.66 141.94 2.8 142.3 1.96L142.3 1.96Q142.46 1.52 142.98 1.72L142.98 1.72Q143.22 1.8 143.14 1.96L143.14 1.96Q142.9 2.48 142.54 3.16 142.18 3.84 141.14 4.84 140.1 5.84 139.02 5.84L139.02 5.84Q134.26 5.84 134.26-2.44L134.26-2.44Q134.26-9.44 136.86-17.4L136.86-17.4Q136.3-17.32 135.5-17.32Z" fill="#7fc37e" data-fill-palette-color="primary"></path></g></svg></g></svg></g><g transform="matrix(1,0,0,1,75.54432,127.52557400988466)"><svg viewBox="0 0 244.43135999999998 23.972524409695072" height="23.972524409695072" width="244.43135999999998"><g transform="matrix(1,0,0,1,0,0)"><svg width="244.43135999999998" viewBox="3.2200000286102295 -37.54999923706055 499.57000732421875 49" height="23.972524409695072" data-palette-color="#7fc37e"><path d="M38.23-17.5L38.23-3.2Q38.23-2.51 37.99-1.93 37.74-1.34 37.32-0.92 36.89-0.49 36.3-0.24 35.72 0 35.03 0L35.03 0 12.13 0Q11.25 0 10.24-0.21 9.23-0.42 8.24-0.85 7.25-1.29 6.35-1.99 5.44-2.69 4.75-3.67 4.05-4.66 3.64-5.97 3.22-7.28 3.22-8.91L3.22-8.91 3.22-26.1Q3.22-26.98 3.43-27.99 3.64-29 4.08-29.99 4.52-30.98 5.22-31.88 5.93-32.79 6.92-33.48 7.91-34.18 9.2-34.59 10.5-35.01 12.13-35.01L12.13-35.01 37.94-35.01 37.94-28.66 12.13-28.66Q10.89-28.66 10.23-28 9.57-27.34 9.57-26.05L9.57-26.05 9.57-8.91Q9.57-7.69 10.24-7.02 10.91-6.35 12.13-6.35L12.13-6.35 31.88-6.35 31.88-14.31 14.99-14.31 14.99-20.7 35.03-20.7Q35.72-20.7 36.3-20.45 36.89-20.19 37.32-19.75 37.74-19.31 37.99-18.74 38.23-18.16 38.23-17.5L38.23-17.5ZM71.38-17.65L71.38-8.74Q71.38-7.42 70.92-5.9 70.46-4.37 69.42-3.06 68.38-1.76 66.71-0.88 65.04 0 62.64 0L62.64 0 51.19 0Q49.88 0 48.35-0.46 46.82-0.93 45.52-1.97 44.21-3 43.33-4.68 42.45-6.35 42.45-8.74L42.45-8.74Q42.45-10.06 42.92-11.6 43.38-13.13 44.42-14.44 45.46-15.75 47.13-16.63 48.8-17.5 51.19-17.5L51.19-17.5 62.64-17.5 62.64-11.45 51.19-11.45Q49.9-11.45 49.19-10.66 48.48-9.86 48.48-8.69L48.48-8.69Q48.48-7.45 49.3-6.75 50.12-6.05 51.24-6.05L51.24-6.05 62.64-6.05Q63.94-6.05 64.65-6.84 65.35-7.62 65.35-8.79L65.35-8.79 65.35-17.65Q65.35-18.9 64.58-19.63 63.82-20.36 62.64-20.36L62.64-20.36 48.7-20.36 48.7-26.39 62.64-26.39Q63.96-26.39 65.49-25.93 67.01-25.46 68.32-24.43 69.63-23.39 70.51-21.72 71.38-20.04 71.38-17.65L71.38-17.65ZM106.05-14.65L106.05 0 99.7 0 99.7-14.65Q99.7-15.89 99.27-16.88 98.85-17.87 98.12-18.58 97.38-19.29 96.39-19.67 95.41-20.04 94.26-20.04L94.26-20.04 83.15-20.04 83.15 0 76.8 0 76.8-23.24Q76.8-23.9 77.05-24.48 77.29-25.05 77.73-25.48 78.17-25.9 78.75-26.15 79.34-26.39 80-26.39L80-26.39 94.31-26.39Q95.5-26.39 96.83-26.12 98.16-25.85 99.47-25.26 100.78-24.66 101.96-23.74 103.14-22.83 104.06-21.52 104.98-20.21 105.51-18.51 106.05-16.8 106.05-14.65L106.05-14.65ZM134.83-26.39L134.83-20.04 123.75-20.04 123.75 0 117.33 0 117.33-20.04 109.07-20.04 109.07-26.39 117.33-26.39 117.33-35.01 123.75-35.01 123.75-26.39 134.83-26.39ZM167.3-17.65L167.3-17.65Q167.3-16.33 166.84-14.81 166.37-13.28 165.33-11.98 164.3-10.67 162.62-9.79 160.95-8.91 158.56-8.91L158.56-8.91 147.11-8.91 147.11-14.94 158.56-14.94Q159.85-14.94 160.56-15.73 161.27-16.53 161.27-17.7L161.27-17.7Q161.27-18.95 160.48-19.65 159.68-20.36 158.56-20.36L158.56-20.36 147.11-20.36Q145.82-20.36 145.11-19.57 144.4-18.77 144.4-17.6L144.4-17.6 144.4-8.74Q144.4-7.47 145.19-6.76 145.99-6.05 147.16-6.05L147.16-6.05 158.56-6.05 158.56 0 147.11 0Q145.79 0 144.26-0.46 142.74-0.93 141.43-1.97 140.13-3 139.25-4.68 138.37-6.35 138.37-8.74L138.37-8.74 138.37-17.65Q138.37-18.97 138.83-20.5 139.3-22.02 140.33-23.33 141.37-24.63 143.04-25.51 144.72-26.39 147.11-26.39L147.11-26.39 158.56-26.39Q159.88-26.39 161.4-25.93 162.93-25.46 164.24-24.43 165.54-23.39 166.42-21.72 167.3-20.04 167.3-17.65ZM200.82-14.65L200.82 0 194.47 0 194.47-14.65Q194.47-15.89 194.04-16.88 193.62-17.87 192.88-18.58 192.15-19.29 191.16-19.67 190.17-20.04 189.03-20.04L189.03-20.04 177.92-20.04 177.92 0 171.57 0 171.57-23.24Q171.57-23.9 171.81-24.48 172.06-25.05 172.5-25.48 172.94-25.9 173.52-26.15 174.11-26.39 174.77-26.39L174.77-26.39 189.07-26.39Q190.27-26.39 191.6-26.12 192.93-25.85 194.24-25.26 195.54-24.66 196.73-23.74 197.91-22.83 198.83-21.52 199.74-20.21 200.28-18.51 200.82-16.8 200.82-14.65L200.82-14.65ZM235.09-17.5L235.09 2.54Q235.09 4.17 234.68 5.48 234.26 6.79 233.58 7.78 232.9 8.76 231.99 9.46 231.09 10.16 230.1 10.6 229.11 11.04 228.1 11.24 227.08 11.45 226.18 11.45L226.18 11.45 214.73 11.45 214.73 5.1 226.18 5.1Q227.48 5.1 228.11 4.44 228.74 3.78 228.74 2.54L228.74 2.54 228.74-17.5Q228.74-18.75 228.11-19.4 227.48-20.04 226.18-20.04L226.18-20.04 214.73-20.04Q213.56-20.04 212.88-19.32 212.19-18.6 212.19-17.5L212.19-17.5 212.19-8.91Q212.19-7.67 212.85-7.01 213.51-6.35 214.78-6.35L214.78-6.35 226.18-6.35 226.18 0 214.73 0Q213.83 0 212.83-0.21 211.83-0.42 210.84-0.85 209.85-1.29 208.94-1.99 208.04-2.69 207.36-3.67 206.67-4.66 206.26-5.97 205.84-7.28 205.84-8.91L205.84-8.91 205.84-17.5Q205.84-18.41 206.05-19.41 206.26-20.41 206.7-21.4 207.14-22.39 207.83-23.29 208.53-24.19 209.52-24.88 210.51-25.56 211.8-25.98 213.1-26.39 214.73-26.39L214.73-26.39 226.18-26.39Q227.08-26.39 228.1-26.18 229.11-25.98 230.1-25.54 231.09-25.1 231.99-24.4 232.9-23.71 233.58-22.72 234.26-21.73 234.68-20.43 235.09-19.14 235.09-17.5L235.09-17.5ZM298.61-32.3L298.61 0 292.22 0 292.22-20.85 280.96-1.05Q280.55-0.29 279.8 0.1 279.06 0.49 278.2 0.49L278.2 0.49Q277.37 0.49 276.65 0.1 275.93-0.29 275.52-1.05L275.52-1.05 264.21-20.85 264.21 0 257.87 0 257.87-32.3Q257.87-33.4 258.51-34.25 259.16-35.11 260.21-35.4L260.21-35.4Q260.72-35.52 261.23-35.49 261.75-35.45 262.22-35.27 262.7-35.08 263.09-34.75 263.48-34.42 263.75-33.96L263.75-33.96 278.2-8.84 292.66-33.96Q293.22-34.89 294.21-35.28 295.19-35.67 296.27-35.4L296.27-35.4Q297.29-35.11 297.95-34.25 298.61-33.4 298.61-32.3L298.61-32.3ZM332.4-17.65L332.4-8.74Q332.4-7.42 331.94-5.9 331.47-4.37 330.43-3.06 329.4-1.76 327.72-0.88 326.05 0 323.66 0L323.66 0 312.21 0Q310.89 0 309.36-0.46 307.84-0.93 306.53-1.97 305.23-3 304.35-4.68 303.47-6.35 303.47-8.74L303.47-8.74Q303.47-10.06 303.93-11.6 304.4-13.13 305.43-14.44 306.47-15.75 308.14-16.63 309.82-17.5 312.21-17.5L312.21-17.5 323.66-17.5 323.66-11.45 312.21-11.45Q310.92-11.45 310.21-10.66 309.5-9.86 309.5-8.69L309.5-8.69Q309.5-7.45 310.32-6.75 311.13-6.05 312.26-6.05L312.26-6.05 323.66-6.05Q324.95-6.05 325.66-6.84 326.37-7.62 326.37-8.79L326.37-8.79 326.37-17.65Q326.37-18.9 325.6-19.63 324.83-20.36 323.66-20.36L323.66-20.36 309.72-20.36 309.72-26.39 323.66-26.39Q324.98-26.39 326.5-25.93 328.03-25.46 329.34-24.43 330.64-23.39 331.52-21.72 332.4-20.04 332.4-17.65L332.4-17.65ZM353.88-14.4L368.82 0 359.67 0 346.87-12.35Q345.8-13.33 345.87-14.79L345.87-14.79Q345.92-15.48 346.23-16.08 346.53-16.67 347.07-17.09L347.07-17.09 358.67-26.44 368.82-26.44 353.88-14.4ZM344.26-37.55L344.26 0 337.91 0 337.91-37.55 344.26-37.55ZM397.9-8.91L397.9-8.91Q397.9-7.28 397.48-5.97 397.07-4.66 396.38-3.67 395.7-2.69 394.8-1.99 393.89-1.29 392.9-0.85 391.92-0.42 390.9-0.21 389.89 0 388.99 0L388.99 0 371.8 0 371.8-6.35 388.94-6.35Q390.23-6.35 390.89-7.01 391.55-7.67 391.55-8.91L391.55-8.91Q391.43-11.45 388.99-11.45L388.99-11.45 379.15-11.45Q377.05-11.45 375.58-12.18 374.12-12.92 373.2-14.01 372.29-15.11 371.88-16.38 371.48-17.65 371.48-18.75L371.48-18.75Q371.48-20.87 372.24-22.33 372.99-23.78 374.14-24.68 375.29-25.59 376.63-25.99 377.98-26.39 379.15-26.39L379.15-26.39 394.75-26.39 394.75-20.04 379.2-20.04Q378.71-20.04 378.43-19.93 378.15-19.82 378.01-19.64 377.88-19.46 377.85-19.25 377.83-19.04 377.83-18.85L377.83-18.85Q377.85-18.46 377.98-18.24 378.1-18.02 378.28-17.92 378.46-17.82 378.7-17.81 378.93-17.8 379.15-17.8L379.15-17.8 388.99-17.8Q391.43-17.8 393.14-16.92 394.85-16.04 395.9-14.71 396.95-13.38 397.42-11.82 397.9-10.25 397.9-8.91ZM408.78-37.55L408.78-31.81 402.44-31.81 402.44-37.55 408.78-37.55ZM408.78-26.39L408.78 0 402.44 0 402.44-26.39 408.78-26.39ZM438.42-17.5L438.42 0 432.07 0 432.07-17.5Q432.07-18.75 431.41-19.4 430.75-20.04 429.46-20.04L429.46-20.04 421.21-20.04 421.21 0 414.86 0 414.86-23.24Q414.86-23.9 415.1-24.48 415.35-25.05 415.79-25.48 416.23-25.9 416.81-26.15 417.4-26.39 418.06-26.39L418.06-26.39 429.51-26.39Q430.83-26.39 432.34-25.93 433.85-25.46 435.22-24.44L435.22-24.44 435.22-26.39 443.82-26.39Q444.72-26.39 445.72-26.18 446.72-25.98 447.71-25.54 448.7-25.1 449.6-24.4 450.5-23.71 451.19-22.72 451.87-21.73 452.29-20.43 452.7-19.14 452.7-17.5L452.7-17.5 452.7 0 446.35 0 446.35-17.5Q446.35-18.75 445.73-19.4 445.11-20.04 443.82-20.04L443.82-20.04 438.1-20.04Q438.42-18.87 438.42-17.5L438.42-17.5ZM485.78-17.65L485.78-8.74Q485.78-7.42 485.32-5.9 484.85-4.37 483.82-3.06 482.78-1.76 481.11-0.88 479.43 0 477.04 0L477.04 0 465.59 0Q464.27 0 462.75-0.46 461.22-0.93 459.91-1.97 458.61-3 457.73-4.68 456.85-6.35 456.85-8.74L456.85-8.74Q456.85-10.06 457.31-11.6 457.78-13.13 458.82-14.44 459.85-15.75 461.53-16.63 463.2-17.5 465.59-17.5L465.59-17.5 477.04-17.5 477.04-11.45 465.59-11.45Q464.3-11.45 463.59-10.66 462.88-9.86 462.88-8.69L462.88-8.69Q462.88-7.45 463.7-6.75 464.52-6.05 465.64-6.05L465.64-6.05 477.04-6.05Q478.33-6.05 479.04-6.84 479.75-7.62 479.75-8.79L479.75-8.79 479.75-17.65Q479.75-18.9 478.98-19.63 478.21-20.36 477.04-20.36L477.04-20.36 463.1-20.36 463.1-26.39 477.04-26.39Q478.36-26.39 479.88-25.93 481.41-25.46 482.72-24.43 484.02-23.39 484.9-21.72 485.78-20.04 485.78-17.65L485.78-17.65ZM502.79-6.35L502.79 0 499.96 0Q498.6 0 497.05-0.46 495.49-0.93 494.15-1.99 492.81-3.05 491.93-4.75 491.05-6.45 491.05-8.91L491.05-8.91 491.05-37.55 497.4-37.55 497.4-8.91Q497.4-7.74 498.13-7.04 498.86-6.35 499.96-6.35L499.96-6.35 502.79-6.35Z" opacity="1" transform="matrix(1,0,0,1,0,0)" fill="#7fc37e" class="slogan-text-1" data-fill-palette-color="secondary" id="text-1"></path></svg></g></svg></g></svg></g></svg></g><g transform="matrix(1,0,0,1,84.46048101364327,0)"><svg viewBox="0 0 226.59903797271343 226.59903797271343" height="226.59903797271343" width="226.59903797271343"><g><svg></svg></g><g id="icon-0"><svg viewBox="0 0 226.59903797271343 226.59903797271343" height="226.59903797271343" width="226.59903797271343"><g><path d="M0 113.3c0-62.574 50.726-113.3 113.3-113.3 62.574 0 113.3 50.726 113.299 113.3 0 62.574-50.726 113.3-113.299 113.299-62.574 0-113.3-50.726-113.3-113.299zM113.3 217.295c57.435 0 103.996-46.56 103.995-103.995 0-57.435-46.56-103.996-103.995-103.996-57.435 0-103.996 46.56-103.996 103.996 0 57.435 46.56 103.996 103.996 103.995z" data-fill-palette-color="accent" fill="#7fc37e" stroke="transparent"></path></g><g transform="matrix(1,0,0,1,57.839675605820226,48.405499734471476)"><svg viewBox="0 0 110.91968676107298 129.78803850377048" height="129.78803850377048" width="110.91968676107298"><g><svg xmlns="http://www.w3.org/2000/svg" xmlns:xlink="http://www.w3.org/1999/xlink" version="1.1" x="0" y="0" viewBox="18.049991607666016 10.509246826171875 66.95001220703125 78.33876037597656" enable-background="new 0 0 100 100" xml:space="preserve" height="129.78803850377048" width="110.91968676107298" class="icon-s-0" data-fill-palette-color="accent" id="s-0"><path d="M82.134 59.201c1.624-1.735 1.984-3.525 1.982-5.775-0.001-2.251-0.361-4.041-1.989-5.773-0.818-0.871-1.775-1.307-2.732-1.307-0.706 0-1.409 0.242-2.059 0.714 0.434-1.118 0.888-2.25 1.354-3.41 2.958-7.342 6.31-15.664 6.31-25.64 0-0.169-0.102-0.321-0.258-0.385-0.155-0.065-0.334-0.029-0.453 0.09-1.169 1.168-1.565 1.227-1.594 1.252-0.097-0.127-0.438-1.103 2.275-7.887 0.069-0.173 0.015-0.372-0.133-0.485-0.149-0.113-0.355-0.115-0.504-0.002-5.445 4.084-6.541 3.541-6.74 3.264-0.161-0.224-0.337-0.885 0.301-2.799 0.057-0.169 0-0.355-0.142-0.463-0.143-0.108-0.338-0.114-0.484-0.015-2.842 1.894-4.011 2.291-4.492 2.291-0.102 0-0.146-0.021-0.149-0.028-0.008-0.012-0.181-0.322 0.522-1.73 0.08-0.16 0.049-0.354-0.078-0.48-0.128-0.127-0.32-0.157-0.48-0.078-0.728 0.363-1.397 0.726-2.021 1.063-1.67 0.905-2.99 1.619-4.066 1.619-0.722 0-1.692-0.284-2.8-2.497-0.141-0.282-0.604-0.282-0.745 0-3.4 6.801-7.354 10.396-11.434 10.396-4.079 0-8.034-3.595-11.434-10.396-0.141-0.282-0.604-0.282-0.745 0-1.107 2.213-2.077 2.497-2.8 2.497-1.077 0-2.396-0.715-4.066-1.619-0.624-0.338-1.295-0.701-2.02-1.063-0.162-0.08-0.354-0.049-0.481 0.078-0.126 0.126-0.158 0.32-0.078 0.48 0.704 1.408 0.53 1.718 0.522 1.73-0.004 0.007-0.048 0.028-0.149 0.028-0.481 0-1.651-0.397-4.492-2.291-0.148-0.099-0.342-0.093-0.485 0.015-0.14 0.108-0.198 0.294-0.141 0.463 0.637 1.914 0.462 2.576 0.301 2.799-0.2 0.278-1.294 0.82-6.741-3.264-0.149-0.113-0.354-0.111-0.502 0.002-0.148 0.114-0.203 0.312-0.133 0.485 2.713 6.785 2.37 7.76 2.314 7.862-0.068 0-0.466-0.059-1.634-1.227-0.119-0.12-0.298-0.155-0.454-0.09-0.156 0.064-0.257 0.216-0.257 0.385 0 9.977 3.353 18.299 6.31 25.642 0.466 1.159 0.919 2.291 1.354 3.408-0.649-0.472-1.354-0.714-2.059-0.714-0.957 0-1.915 0.436-2.732 1.307-1.628 1.732-1.989 3.522-1.99 5.773-0.001 2.25 0.359 4.04 1.983 5.775 0.82 0.874 1.779 1.313 2.74 1.313 0.732 0 1.463-0.259 2.133-0.769-0.691 2.028-2.411 3.751-5.146 5.118-0.166 0.083-0.257 0.266-0.224 0.447 0.033 0.183 0.183 0.32 0.366 0.34 3.135 0.327 3.802 1.043 3.92 1.439 0.17 0.568-0.462 1.474-1.778 2.547-0.117 0.096-0.174 0.249-0.146 0.4 0.029 0.15 0.137 0.271 0.283 0.319l7.227 2.304c0.04 0.013 0.136 0.021 0.178 0.021 0.051 0 0.096-0.01 0.146-0.013 5.13 10.958 13.018 16.181 20.911 16.181 7.894 0 15.781-5.223 20.911-16.181 0.05 0.003 0.095 0.013 0.146 0.013 0.004 0 0.06-0.002 0.063-0.003 0.039 0 0.078-0.007 0.115-0.019l7.228-2.304c0.146-0.048 0.254-0.169 0.282-0.319 0.028-0.151-0.027-0.305-0.146-0.4-1.317-1.073-1.948-1.979-1.778-2.547 0.118-0.396 0.785-1.112 3.92-1.439 0.184-0.02 0.333-0.157 0.366-0.34 0.033-0.182-0.059-0.364-0.223-0.447-2.736-1.367-4.455-3.09-5.146-5.118 0.671 0.51 1.4 0.769 2.132 0.769C80.354 60.515 81.314 60.075 82.134 59.201zM22.01 52.253c-0.651 0.65-0.651 1.705-0.001 2.355l1.184 1.184-1.184 1.183c-0.153 0.153-0.271 0.332-0.353 0.522-0.773-1.045-1.061-2.2-1.06-4.071 0.001-2.212 0.403-3.424 1.538-4.632 0.334-0.356 0.871-0.781 1.519-0.781 0.307 0 0.588 0.095 0.836 0.233C23.961 49.799 23.144 51.116 22.01 52.253zM70.536 64.411c-0.115 0.805-0.253 1.585-0.387 2.341-0.5 2.835-0.862 4.882 0.265 6.225 0.006 0.009 0.013 0.016 0.02 0.023-4.54 9.038-11.368 14.185-18.91 14.185S37.154 82.038 32.614 73c0.006-0.008 0.013-0.015 0.019-0.023 1.127-1.343 0.765-3.392 0.264-6.227-0.134-0.756-0.271-1.537-0.386-2.339-0.573-4.015-0.573-8.75-0.573-12.555 0-3.738 0-6.69 1.005-8.701 1.198-2.396 3.853-3.607 4.637-3.92 0.874-0.35 1.598-0.499 2.418-0.499 0.727 0 1.557 0.117 2.69 0.378 2.665 0.615 5.399 1.721 7.345 5.616 0.283 0.564 0.859 0.92 1.49 0.92s1.208-0.356 1.49-0.92c1.947-3.895 4.682-5.001 7.346-5.616 1.134-0.262 1.963-0.378 2.689-0.378 0.821 0 1.544 0.149 2.417 0.499 0.785 0.313 3.44 1.525 4.64 3.92 1.005 2.009 1.005 4.962 1.005 8.701C71.11 55.661 71.11 60.396 70.536 64.411zM79.395 48.013c0.648 0 1.184 0.425 1.518 0.781 1.135 1.208 1.538 2.42 1.539 4.633 0 1.87-0.286 3.025-1.061 4.07-0.081-0.19-0.199-0.369-0.353-0.522l-1.184-1.183 1.184-1.184c0.65-0.65 0.65-1.705 0-2.355-1.136-1.137-1.952-2.454-2.479-4.007C78.806 48.108 79.088 48.013 79.395 48.013z" fill="#7fc37e" data-fill-palette-color="accent"></path></svg></g></svg></g></svg></g></svg></g><g></g></svg></g><defs></defs></svg><rect width="229.07802908522328" height="247.2" fill="none" stroke="none" visibility="hidden"></rect></g></svg></g></svg>